#!OML:ASF E:\emotionWalksFemale\Project 1\Capture day 1\Session 1\Female1.ASF
:FULLY-SPECIFIED
:DEGREES
290
root 9.55353 16.6509 13.5379 375.298 -72.0836 -6.3715
lowerback 10.1291 -1.97827 2.73231
upperback -5.33327 -1.93165 3.90356
thorax -11.4489 -0.981246 3.09745
lowerneck -9.11488 -3.83998 0.141369
upperneck -2.45207 -5.20057 -1.49183
head 0.70435 -2.6611 -0.651481
rclavicle -1.14798e-014 -2.22639e-014
rhumerus -86.176 42.879 -99.5535
rradius 62.1891
rwrist 34.0012
rhand -15.6999 -39.1598
rfingers 7.12502
rthumb 10.4896 291.122
lclavicle -1.14798e-014 -2.22639e-014
lhumerus 55.5975 -10.28 19.2427
lradius 92.7455
lwrist 1.09817
lhand -19.2215 -55.4259
lfingers 7.12502
lthumb 7.09134 -25.5647
rfemur -19.2812 9.40019 18.6376
rtibia 29.4727
rfoot 11.2849 -25.747
rtoes 12.9605
lfemur -18.1093 -13.762 -26.2075
ltibia 23.0623
lfoot 13.4671 -1.77967
ltoes -4.3751
291
root 9.5948 16.3126 13.4132 375.556 -71.4499 -6.52424
lowerback 10.4512 -1.6578 2.68612
upperback -5.19011 -1.54252 3.26625
thorax -11.5046 -0.813177 2.35587
lowerneck -8.77798 -4.4471 0.785293
upperneck -3.32093 -6.08621 -0.781648
head 0.367406 -3.10077 -0.538521
rclavicle -2.96189e-014 1.90833e-014
rhumerus -84.6684 41.331 -100.002
rradius 61.8307
rwrist 33.7697
rhand -12.6366 -38.8343
rfingers 7.12502
rthumb 13.4435 291.619
lclavicle -2.96189e-014 1.90833e-014
lhumerus 56.5984 -9.32333 20.0926
lradius 90.8537
lwrist 1.41992
lhand -18.4376 -53.6585
lfingers 7.12502
lthumb 7.84794 -23.8242
rfemur -19.4954 5.33593 19.931
rtibia 31.652
rfoot 3.66797 -21.0961
rtoes -1.68116
lfemur -19.3778 -12.2817 -26.4721
ltibia 27.1689
lfoot 3.04549 -5.8478
ltoes -15.6129
292
root 9.65049 15.9824 13.2968 376.477 -70.7442 -7.22239
lowerback 10.8258 -1.95536 2.5749
upperback -5.20037 -1.91183 3.6006
thorax -11.7227 -0.964467 2.87886
lowerneck -7.86532 -4.50065 -0.836785
upperneck -4.56613 -6.03423 0.348315
head -0.0854058 -3.05239 0.109066
rclavicle 4.58696e-014 7.95139e-016
rhumerus -84.0922 42.5562 -101.057
rradius 61.3684
rwrist 32.7129
rhand -10.7664 -39.1762
rfingers 7.12502
rthumb 15.2455 291.406
lclavicle 4.58696e-014 7.95139e-016
lhumerus 54.7371 -7.82024 21.8443
lradius 89.198
lwrist 1.18375
lhand -18.0675 -52.146
lfingers 7.12502
lthumb 8.20518 -22.3253
rfemur -20.0887 1.87014 21.3758
rtibia 34.0173
rfoot 0.906382 -17.908
rtoes -27.464
lfemur -21.0636 -11.1846 -26.4009
ltibia 31.2423
lfoot -3.94531 -6.5732
ltoes -16.5731
293
root 9.70734 15.7438 13.1849 377.574 -70.015 -8.23558
lowerback 11.6892 -2.71593 2.2572
upperback -5.36004 -2.84161 4.75278
thorax -12.3354 -1.32311 4.59583
lowerneck -6.70765 -4.07192 -4.40243
upperneck -5.71294 -5.24302 1.63722
head -0.494842 -2.59984 1.14599
rclavicle -1.03865e-013 5.80451e-014
rhumerus -84.3923 45.92 -102.504
rradius 61.1201
rwrist 31.3593
rhand -8.80144 -39.5168
rfingers 7.12502
rthumb 17.1376 291.219
lclavicle -1.03865e-013 5.80451e-014
lhumerus 50.3886 -5.52901 24.0409
lradius 88.1355
lwrist 0.917898
lhand -17.5811 -50.0399
lfingers 7.12502
lthumb 8.67462 -20.2382
rfemur -21.2542 -0.572405 22.7225
rtibia 36.3309
rfoot -6.33945 -18.0929
rtoes -22.1301
lfemur -23.2755 -10.6172 -25.9014
ltibia 34.926
lfoot -9.08679 -7.10246
ltoes 3.66236
294
root 9.76522 15.5051 13.0632 378.694 -69.5206 -9.54691
lowerback 12.8191 -2.79417 2.20496
upperback -5.23443 -2.86962 5.05479
thorax -12.862 -1.30227 5.04848
lowerneck -6.41608 -4.15581 -5.51403
upperneck -6.47591 -5.30262 2.31084
head -0.731831 -2.60961 1.56742
rclavicle -1.45113e-014 2.54444e-014
rhumerus -82.6108 46.5232 -102.629
rradius 59.9993
rwrist 31.428
rhand -6.85759 -38.5304
rfingers 7.12502
rthumb 19.0078 292.378
lclavicle -1.45113e-014 2.54444e-014
lhumerus 48.7492 -3.71808 25.6075
lradius 87.1178
lwrist 0.990919
lhand -16.5997 -47.8038
lfingers 7.12502
lthumb 9.62156 -18.0435
rfemur -22.3459 -1.61577 23.8304
rtibia 38.1607
rfoot -12.2942 -18.6765
rtoes -18.2481
lfemur -25.2408 -10.1106 -25.2504
ltibia 38.6307
lfoot -16.0585 -4.6204
ltoes -33.2973
295
root 9.81942 15.264 12.9393 380.037 -69.4753 -11.404
lowerback 14.038 -1.78756 2.73431
upperback -4.8588 -1.4566 3.93107
thorax -13.2953 -0.720434 3.1981
lowerneck -6.53293 -5.18159 -2.83827
upperneck -7.02328 -6.81972 2.27948
head -0.913707 -3.42554 1.08432
rclavicle -2.43014e-014 -3.97569e-015
rhumerus -78.1889 42.3755 -101.358
rradius 57.6561
rwrist 32.738
rhand -4.67738 -38.2122
rfingers 7.12502
rthumb 21.1034 292.916
lclavicle -2.43014e-014 -3.97569e-015
lhumerus 51.5094 -3.60782 26.5871
lradius 85.6456
lwrist 1.41523
lhand -16.2949 -46.3454
lfingers 7.12502
lthumb 9.91561 -16.5989
rfemur -22.8808 -1.20938 24.8869
rtibia 39.776
rfoot -17.0058 -20.3319
rtoes -13.1116
lfemur -26.68 -9.47956 -24.5284
ltibia 42.0584
lfoot -21.6392 -4.73206
ltoes -9.48702
296
root 9.87395 15.0129 12.8151 385.377 -68.9508 -16.6641
lowerback 14.321 -0.804049 4.85816
upperback -4.79929 0.231072 3.29237
thorax -13.4483 -0.145437 0.862703
lowerneck -6.59218 -6.34171 -1.15751
upperneck -7.36006 -8.45043 2.51487
head -1.02847 -4.28327 0.865224
rclavicle -1.00883e-014 -3.26007e-014
rhumerus -74.2012 38.2583 -100.098
rradius 55.1786
rwrist 33.9945
rhand -2.38258 -39.0058
rfingers 7.12502
rthumb 23.3064 292.385
lclavicle -1.00883e-014 -3.26007e-014
lhumerus 53.6994 -3.96112 28.0488
lradius 84.5604
lwrist 2.04677
lhand -16.7841 -45.0754
lfingers 7.12502
lthumb 9.44371 -15.307
rfemur -24.0843 -1.38381 27.6333
rtibia 41.0481
rfoot -20 -22.0157
rtoes -13.396
lfemur -29.2895 -8.9396 -22.1721
ltibia 45.8598
lfoot -26.6889 -0.340011
ltoes -30.5583
297
root 9.92648 14.7759 12.6989 388.913 -68.5738 -19.7056
lowerback 13.9884 0.735487 6.43709
upperback -5.03701 2.41925 1.6413
thorax -13.3322 0.656421 -2.41277
lowerneck -5.90453 -7.91275 3.38314
upperneck -8.07102 -10.7878 1.83018
head -1.61824 -5.56795 -0.0035388
rclavicle -1.55083e-014 -4.95719e-014
rhumerus -70.8117 31.6979 -99.7406
rradius 53.1271
rwrist 35.4197
rhand -0.442842 -41.3782
rfingers 7.12502
rthumb 25.1661 290.261
lclavicle -1.55083e-014 -4.95719e-014
lhumerus 57.6466 -6.25987 29.3208
lradius 83.3788
lwrist 2.52885
lhand -16.9314 -44.1652
lfingers 7.12502
lthumb 9.30157 -14.3904
rfemur -26.0525 -2.08995 29.7097
rtibia 43.0986
rfoot -20.7467 -24.35
rtoes -22.7263
lfemur -31.953 -8.56188 -20.6567
ltibia 49.5001
lfoot -30.3412 -2.50677
ltoes -8.85156
298
root 9.9801 14.6784 12.5947 389.571 -68.471 -19.731
lowerback 14.0569 0.65533 6.19508
upperback -4.97766 2.27756 1.72875
thorax -13.3274 0.61699 -2.14647
lowerneck -5.6841 -7.91495 2.35651
upperneck -8.6712 -10.706 2.60487
head -1.74238 -5.52592 0.413235
rclavicle -5.89179e-014 1.47598e-014
rhumerus -68.4389 32.8638 -99.9916
rradius 50.9491
rwrist 35.8756
rhand 0.0090958 -42.9081
rfingers 7.12502
rthumb 25.5991 288.792
lclavicle -5.89179e-014 1.47598e-014
lhumerus 55.6501 -5.19229 31.4367
lradius 82.4432
lwrist 2.94316
lhand -16.815 -43.5818
lfingers 7.12502
lthumb 9.4138 -13.812
rfemur -28.5171 -2.47244 30.2581
rtibia 45.8826
rfoot -22.4106 -24.3562
rtoes -23.023
lfemur -34.9184 -8.64978 -20.1482
ltibia 53.2219
lfoot -31.5558 -4.5623
ltoes 1.8591
299
root 10.0444 14.5671 12.4814 388.361 -68.4988 -18.1261
lowerback 14.7847 0.803575 5.41276
upperback -4.98787 2.39356 1.80472
thorax -13.8024 0.727683 -1.67019
lowerneck -5.17336 -8.22453 0.545913
upperneck -9.37902 -10.9884 3.55158
head -1.89944 -5.64475 1.02288
rclavicle 4.33475e-014 3.74709e-014
rhumerus -66.7201 33.8929 -99.6489
rradius 49.3509
rwrist 36.7457
rhand -0.927066 -43.7108
rfingers 7.12502
rthumb 24.7021 287.864
lclavicle 4.33475e-014 3.74709e-014
lhumerus 53.6192 -4.45222 34.1922
lradius 81.9654
lwrist 3.37904
lhand -16.8882 -42.9698
lfingers 7.12502
lthumb 9.34326 -13.1968
rfemur -31.5591 -2.28459 29.7643
rtibia 49.8242
rfoot -26.4191 -20.6433
rtoes -6.93032
lfemur -37.5049 -8.59593 -20.4153
ltibia 56.5451
lfoot -32.3548 -3.95902
ltoes -2.8145
